<?xml version="1.0" encoding="utf-8" standalone="no"?>
<!DOCTYPE svg PUBLIC "-//W3C//DTD SVG 1.1//EN"
  "http://www.w3.org/Graphics/SVG/1.1/DTD/svg11.dtd">
<svg height="720pt" version="1.1" viewBox="0 0 720 720" width="720pt" xmlns="http://www.w3.org/2000/svg" xmlns:xlink="http://www.w3.org/1999/xlink">
 <metadata>
  <rdf:RDF xmlns:cc="http://creativecommons.org/ns#" xmlns:dc="http://purl.org/dc/elements/1.1/" xmlns:rdf="http://www.w3.org/1999/02/22-rdf-syntax-ns#">
   <cc:Work>
    <dc:type rdf:resource="http://purl.org/dc/dcmitype/StillImage"/>
    <dc:date>2022-07-09T10:08:55.068399</dc:date>
    <dc:format>image/svg+xml</dc:format>
    <dc:creator>
     <cc:Agent>
      <dc:title>Matplotlib v3.4.2, https://matplotlib.org/</dc:title>
     </cc:Agent>
    </dc:creator>
   </cc:Work>
  </rdf:RDF>
 </metadata>
 <defs>
  <style type="text/css">*{stroke-linecap:butt;stroke-linejoin:round;}</style>
 </defs>
 <g id="figure_1">
  <g id="patch_1">
   <path d="M 0 720 
L 720 720 
L 720 0 
L 0 0 
z
" style="fill:none;"/>
  </g>
  <g id="axes_1">
   <g id="patch_2">
    <path clip-path="url(#p917b4f422b)" d="M 622.636364 600.39802 
L 613.496314 605.290909 
L 613.496314 600.642664 
L 119.933661 600.642664 
L 119.933661 600.153375 
L 613.496314 600.153375 
L 613.496314 595.505131 
z
" style="stroke:#000000;stroke-linejoin:miter;"/>
   </g>
   <g id="patch_3">
    <path clip-path="url(#p917b4f422b)" d="M 119.933661 111.109091 
L 124.503686 120.894869 
L 120.162162 120.894869 
L 120.162162 600.39802 
L 119.70516 600.39802 
L 119.70516 120.894869 
L 115.363636 120.894869 
z
" style="stroke:#000000;stroke-linejoin:miter;"/>
   </g>
   <g id="patch_4">
    <path clip-path="url(#p917b4f422b)" d="M 211.334152 492.754455 
L 208.993626 503.40445 
L 205.658375 500.428716 
L 165.809446 551.625744 
L 165.458367 551.312509 
L 205.307296 500.115481 
L 201.972045 497.139747 
z
" style="stroke:#000000;stroke-linejoin:miter;"/>
   </g>
   <g id="patch_5">
    <path clip-path="url(#p917b4f422b)" d="M 247.894349 390.00378 
L 238.616016 385.418935 
L 242.006176 382.515199 
L 211.155723 341.227716 
L 211.512582 340.922059 
L 242.363035 382.209543 
L 245.753195 379.305807 
z
" style="stroke:#000000;stroke-linejoin:miter;"/>
   </g>
   <g id="patch_6">
    <path clip-path="url(#p917b4f422b)" d="M 394.135135 419.361116 
L 397.140365 429.818135 
L 392.857913 429.053968 
L 385.220478 478.116007 
L 384.769694 478.035568 
L 392.407128 428.973529 
L 388.124676 428.209363 
z
" style="stroke:#000000;stroke-linejoin:miter;"/>
   </g>
   <g id="patch_7">
    <path clip-path="url(#p917b4f422b)" d="M 522.095823 277.467327 
L 512.207853 274.705621 
L 515.066766 271.20746 
L 485.385157 243.401215 
L 485.686096 243.032988 
L 515.367704 270.839233 
L 518.226617 267.341072 
z
" style="stroke:#000000;stroke-linejoin:miter;"/>
   </g>
   <g id="line2d_1">
    <path clip-path="url(#p917b4f422b)" d="M 119.933661 502.540234 
L 165.633907 453.611341 
L 211.334152 478.075788 
L 257.034398 404.682448 
L 302.734644 502.540234 
L 348.434889 306.824662 
L 394.135135 404.682448 
L 439.835381 355.753555 
L 485.535627 380.218002 
L 531.235872 282.360216 
L 576.936118 160.037984 
" style="fill:none;stroke:#add8e6;stroke-linecap:square;stroke-width:1.5;"/>
    <defs>
     <path d="M 0 5 
C 1.326016 5 2.597899 4.473168 3.535534 3.535534 
C 4.473168 2.597899 5 1.326016 5 0 
C 5 -1.326016 4.473168 -2.597899 3.535534 -3.535534 
C 2.597899 -4.473168 1.326016 -5 0 -5 
C -1.326016 -5 -2.597899 -4.473168 -3.535534 -3.535534 
C -4.473168 -2.597899 -5 -1.326016 -5 0 
C -5 1.326016 -4.473168 2.597899 -3.535534 3.535534 
C -2.597899 4.473168 -1.326016 5 0 5 
z
" id="mb9dea0f764" style="stroke:#add8e6;"/>
    </defs>
    <g clip-path="url(#p917b4f422b)">
     <use style="fill:#add8e6;stroke:#add8e6;" x="119.933661" xlink:href="#mb9dea0f764" y="502.540234"/>
     <use style="fill:#add8e6;stroke:#add8e6;" x="165.633907" xlink:href="#mb9dea0f764" y="453.611341"/>
     <use style="fill:#add8e6;stroke:#add8e6;" x="211.334152" xlink:href="#mb9dea0f764" y="478.075788"/>
     <use style="fill:#add8e6;stroke:#add8e6;" x="257.034398" xlink:href="#mb9dea0f764" y="404.682448"/>
     <use style="fill:#add8e6;stroke:#add8e6;" x="302.734644" xlink:href="#mb9dea0f764" y="502.540234"/>
     <use style="fill:#add8e6;stroke:#add8e6;" x="348.434889" xlink:href="#mb9dea0f764" y="306.824662"/>
     <use style="fill:#add8e6;stroke:#add8e6;" x="394.135135" xlink:href="#mb9dea0f764" y="404.682448"/>
     <use style="fill:#add8e6;stroke:#add8e6;" x="439.835381" xlink:href="#mb9dea0f764" y="355.753555"/>
     <use style="fill:#add8e6;stroke:#add8e6;" x="485.535627" xlink:href="#mb9dea0f764" y="380.218002"/>
     <use style="fill:#add8e6;stroke:#add8e6;" x="531.235872" xlink:href="#mb9dea0f764" y="282.360216"/>
     <use style="fill:#add8e6;stroke:#add8e6;" x="576.936118" xlink:href="#mb9dea0f764" y="160.037984"/>
    </g>
   </g>
   <g id="text_1">
    <!-- Buy! -->
    <g transform="translate(142.783784 575.933573)scale(0.25 -0.25)">
     <defs>
      <path d="M 2099 154 
Q 2016 154 1862 99 
Q 1709 45 1638 45 
Q 1555 45 1500 105 
Q 1446 166 1411 291 
Q 1376 416 1357 576 
Q 1338 736 1322 973 
Q 1306 1210 1290 1446 
Q 1274 1683 1245 2012 
Q 1216 2342 1178 2643 
Q 1107 3277 1069 3757 
L 1024 4333 
L 774 4333 
Q 454 4333 454 4474 
Q 454 4678 1440 4934 
Q 1837 5037 2605 5037 
Q 2899 5037 2998 5008 
Q 3098 4979 3200 4870 
Q 3360 4685 3360 4570 
Q 3360 4275 3197 3942 
Q 3034 3610 2870 3379 
Q 2707 3149 2707 3104 
Q 2707 3066 2797 3066 
Q 2925 3066 3184 2909 
Q 3443 2752 3520 2624 
Q 3674 2374 3674 1888 
Q 3674 1126 3248 601 
Q 2822 77 2445 77 
Q 2381 77 2278 115 
Q 2176 154 2099 154 
z
M 2925 4576 
Q 2829 4678 2458 4678 
Q 2227 4678 2035 4646 
Q 1562 4563 1504 4525 
Q 1440 4480 1440 4301 
L 1440 4173 
Q 1440 3782 1517 3258 
Q 1562 2912 1600 2813 
Q 1638 2714 1728 2714 
Q 1869 2714 2281 3194 
Q 2694 3674 2854 4019 
Q 3014 4378 3014 4429 
Q 3014 4474 2925 4576 
z
M 3334 1798 
Q 3334 2637 2714 2637 
Q 2554 2637 2390 2589 
Q 2227 2541 2025 2448 
Q 1824 2355 1747 2330 
Q 1683 2304 1660 2253 
Q 1638 2202 1638 2029 
Q 1638 1856 1658 1472 
Q 1670 1242 1680 1110 
Q 1690 979 1706 851 
Q 1722 723 1754 665 
Q 1786 608 1821 553 
Q 1856 499 1926 480 
Q 1997 461 2070 451 
Q 2144 442 2272 435 
Q 2304 435 2355 432 
Q 2406 429 2426 429 
Q 2586 429 2669 486 
Q 2752 544 2957 787 
Q 3174 1030 3254 1219 
Q 3334 1408 3334 1798 
z
" id="Purisa-42" transform="scale(0.015625)"/>
      <path d="M 486 2253 
Q 486 3450 666 3450 
Q 698 3450 733 3437 
Q 768 3424 819 3344 
Q 870 3264 870 3123 
Q 870 3059 857 2908 
Q 845 2758 845 2573 
Q 845 2054 902 1312 
Q 960 570 1024 339 
Q 1088 90 1242 90 
Q 1389 90 1690 352 
Q 2061 678 2403 1369 
Q 2746 2061 2880 2752 
Q 3008 3430 3091 3475 
Q 3155 3520 3226 3520 
Q 3379 3520 3379 3341 
Q 3379 3251 3286 2592 
Q 3194 1933 3194 1645 
Q 3194 1242 3357 640 
Q 3520 38 3520 -38 
Q 3520 -102 3469 -140 
Q 3418 -179 3382 -188 
Q 3347 -198 3328 -198 
Q 3213 -198 3101 128 
Q 2989 454 2902 780 
Q 2816 1107 2752 1107 
Q 2739 1107 2726 1100 
Q 2714 1094 2698 1078 
Q 2682 1062 2669 1043 
Q 2656 1024 2633 992 
Q 2611 960 2595 934 
Q 2579 909 2547 857 
Q 2515 806 2496 774 
Q 2214 333 1872 38 
Q 1530 -256 1293 -256 
Q 1024 -256 889 -137 
Q 755 -19 675 288 
Q 595 595 531 1261 
Q 486 1683 486 2253 
z
" id="Purisa-75" transform="scale(0.015625)"/>
      <path d="M 819 1843 
Q 819 1344 864 1104 
Q 909 864 1037 864 
Q 1158 864 1436 1165 
Q 1715 1466 1830 1728 
Q 1978 2048 2067 2499 
Q 2157 2950 2227 3187 
Q 2298 3424 2438 3424 
Q 2509 3424 2566 3366 
Q 2624 3309 2624 3219 
Q 2624 3117 2480 2547 
Q 2336 1978 2336 1350 
Q 2336 1146 2355 960 
L 2400 774 
L 2605 877 
Q 2765 947 2854 947 
Q 3021 947 3021 826 
Q 3021 672 2752 531 
L 2490 397 
L 2522 -320 
Q 2483 -1453 2438 -1517 
Q 2394 -1594 2278 -1594 
Q 2144 -1594 1875 -1478 
Q 1722 -1408 1635 -1325 
Q 1549 -1242 1472 -1082 
Q 1293 -717 1293 -429 
Q 1293 -326 1312 -272 
Q 1331 -218 1408 -99 
Q 1485 19 1549 134 
Q 1606 243 1737 316 
Q 1869 390 1901 429 
Q 1952 480 2000 512 
Q 2048 544 2061 557 
Q 2074 570 2074 602 
Q 2074 678 2035 892 
Q 1997 1107 1939 1107 
Q 1901 1107 1766 950 
Q 1632 794 1427 637 
Q 1222 480 1018 480 
Q 762 480 595 781 
Q 512 934 489 1132 
Q 467 1331 467 1971 
Q 474 2694 522 2960 
Q 570 3226 704 3226 
Q 781 3226 806 3139 
Q 832 3053 832 2746 
Q 832 2624 825 2329 
Q 819 2035 819 1843 
z
M 1664 -698 
Q 1664 -813 1840 -1001 
Q 2016 -1190 2106 -1190 
Q 2202 -1190 2202 -742 
Q 2195 -621 2160 -441 
Q 2125 -262 2118 -192 
L 2080 192 
L 1901 -83 
Q 1664 -454 1664 -698 
z
" id="Purisa-79" transform="scale(0.015625)"/>
      <path d="M 1754 13 
Q 1702 13 1596 61 
Q 1491 109 1466 109 
Q 1408 109 1347 179 
Q 1286 250 1286 320 
Q 1286 410 1385 570 
Q 1485 730 1562 762 
Q 1613 787 1709 787 
Q 2042 787 2042 531 
Q 2042 384 1962 198 
Q 1882 13 1754 13 
z
M 1357 3418 
Q 1357 3494 1382 3513 
Q 1408 3533 1485 3533 
Q 1530 3533 1702 3510 
Q 1875 3488 1978 3482 
L 2202 3456 
L 2182 3219 
Q 2170 3053 2016 2537 
Q 1862 2022 1786 1606 
Q 1754 1434 1677 1434 
Q 1626 1434 1597 1475 
Q 1568 1517 1549 1635 
Q 1530 1754 1520 1878 
Q 1510 2003 1488 2259 
Q 1466 2515 1440 2746 
Q 1421 2854 1421 2995 
Q 1421 3021 1427 3091 
Q 1434 3162 1434 3194 
Q 1434 3277 1402 3302 
Q 1357 3328 1357 3418 
z
" id="Purisa-21" transform="scale(0.015625)"/>
     </defs>
     <use xlink:href="#Purisa-42"/>
     <use x="65.499985" xlink:href="#Purisa-75"/>
     <use x="126.099976" xlink:href="#Purisa-79"/>
     <use x="178.699966" xlink:href="#Purisa-21"/>
    </g>
   </g>
   <g id="text_2">
    <!-- Sell! -->
    <g transform="translate(188.484029 331.289109)scale(0.25 -0.25)">
     <defs>
      <path d="M 1120 1203 
Q 1120 1075 1024 976 
Q 928 877 928 813 
Q 928 742 973 646 
Q 1037 506 1136 474 
Q 1235 442 1626 442 
Q 1958 442 2124 480 
Q 2291 518 2445 634 
Q 2694 813 2755 918 
Q 2816 1024 2816 1280 
Q 2816 1472 2745 1552 
Q 2675 1632 2368 1773 
Q 1926 1978 1798 1978 
Q 1523 1978 956 2458 
Q 390 2938 390 3174 
Q 390 3514 736 3952 
Q 1082 4390 1510 4595 
Q 1728 4704 2336 4704 
Q 2605 4704 2739 4665 
Q 2874 4627 3027 4499 
Q 3136 4410 3219 4291 
Q 3302 4173 3302 4109 
Q 3302 3955 3251 3955 
Q 3200 3955 3117 4019 
Q 3034 4083 2944 4156 
Q 2854 4230 2688 4294 
Q 2522 4358 2323 4358 
Q 1786 4358 1341 3968 
Q 896 3578 896 3123 
Q 896 2752 2214 2330 
Q 3251 2003 3251 1312 
Q 3251 1171 3200 986 
Q 3053 486 2701 294 
Q 2349 102 1472 45 
L 896 6 
L 723 365 
Q 589 627 589 890 
Q 589 1107 691 1241 
Q 794 1376 979 1376 
Q 1120 1376 1120 1203 
z
" id="Purisa-53" transform="scale(0.015625)"/>
      <path d="M 3635 1376 
Q 3667 1376 3667 1325 
Q 3667 1210 3497 954 
Q 3328 698 3136 531 
Q 2464 -64 1792 -64 
Q 1536 -64 1283 54 
Q 1030 173 812 390 
Q 595 608 460 973 
Q 326 1338 326 1786 
Q 326 2061 390 2253 
Q 518 2643 937 3078 
Q 1357 3514 1728 3514 
Q 1830 3514 2035 3494 
Q 2342 3469 2467 3430 
Q 2592 3392 2752 3270 
Q 2957 3117 3107 2877 
Q 3258 2637 3258 2477 
Q 3258 2272 3098 2166 
Q 2938 2061 2477 1958 
Q 1875 1824 1299 1792 
L 704 1760 
L 704 1504 
Q 704 1030 1146 608 
Q 1478 288 1837 288 
Q 2112 288 2422 457 
Q 2733 627 2950 832 
Q 3168 1037 3366 1206 
Q 3565 1376 3635 1376 
z
M 2605 2938 
Q 2406 3117 2307 3165 
Q 2208 3213 2048 3213 
Q 1728 3213 1571 3152 
Q 1414 3091 1254 2906 
Q 768 2349 768 2163 
Q 768 2080 922 2080 
Q 1504 2080 2573 2323 
Q 2893 2400 2893 2592 
Q 2893 2682 2605 2938 
z
" id="Purisa-65" transform="scale(0.015625)"/>
      <path d="M 621 5114 
Q 621 5606 646 5865 
Q 672 6125 710 6195 
Q 749 6266 819 6266 
Q 883 6266 922 6208 
Q 960 6144 1155 3245 
Q 1350 346 1350 230 
Q 1350 147 1312 118 
Q 1274 90 1184 90 
Q 1030 90 985 310 
Q 941 531 858 1696 
Q 755 3104 659 4211 
Q 621 4627 621 5114 
z
" id="Purisa-6c" transform="scale(0.015625)"/>
     </defs>
     <use xlink:href="#Purisa-53"/>
     <use x="57.899994" xlink:href="#Purisa-65"/>
     <use x="119.599991" xlink:href="#Purisa-6c"/>
     <use x="149.499985" xlink:href="#Purisa-6c"/>
     <use x="179.399979" xlink:href="#Purisa-21"/>
    </g>
   </g>
   <g id="text_3">
    <!-- Buy! -->
    <g transform="translate(357.574939 507.433123)scale(0.25 -0.25)">
     <use xlink:href="#Purisa-42"/>
     <use x="65.499985" xlink:href="#Purisa-75"/>
     <use x="126.099976" xlink:href="#Purisa-79"/>
     <use x="178.699966" xlink:href="#Purisa-21"/>
    </g>
   </g>
   <g id="text_4">
    <!-- Sell! -->
    <g transform="translate(448.97543 233.431323)scale(0.25 -0.25)">
     <use xlink:href="#Purisa-53"/>
     <use x="57.899994" xlink:href="#Purisa-65"/>
     <use x="119.599991" xlink:href="#Purisa-6c"/>
     <use x="149.499985" xlink:href="#Purisa-6c"/>
     <use x="179.399979" xlink:href="#Purisa-21"/>
    </g>
   </g>
   <g id="text_5">
    <!-- Price -->
    <g transform="translate(108.175315 387.596127)rotate(-90)scale(0.3 -0.3)">
     <defs>
      <path d="M 1466 5088 
Q 1670 5088 1968 5142 
Q 2266 5197 2458 5197 
Q 2541 5197 2573 5190 
Q 2797 5158 2893 5145 
Q 2989 5133 3158 5097 
Q 3328 5062 3401 5024 
Q 3475 4986 3577 4918 
Q 3680 4851 3725 4764 
Q 3770 4678 3802 4550 
Q 3834 4422 3834 4262 
Q 3834 3981 3757 3677 
Q 3680 3373 3603 3373 
Q 3520 3373 3520 3251 
Q 3520 3104 3136 2752 
Q 2752 2400 2534 2355 
Q 2272 2285 2234 2214 
Q 2189 2131 1818 2131 
L 1440 2131 
L 1504 979 
Q 1530 538 1530 205 
Q 1530 -205 1459 -307 
Q 1350 -435 1274 -435 
Q 1133 -435 1094 -147 
Q 1030 346 934 1722 
Q 838 3098 838 3571 
L 838 4256 
L 646 4122 
Q 518 4032 422 4032 
Q 384 4032 342 4077 
Q 301 4122 301 4186 
Q 301 4365 666 4749 
Q 870 4966 972 5036 
Q 1075 5107 1184 5107 
Q 1216 5107 1293 5097 
Q 1370 5088 1466 5088 
z
M 2861 4608 
Q 2528 4685 2394 4685 
Q 2266 4685 1805 4589 
Q 1466 4518 1382 4416 
Q 1299 4314 1299 3949 
Q 1299 3578 1344 3142 
Q 1389 2707 1440 2650 
Q 1466 2618 1587 2618 
Q 1792 2618 2137 2710 
Q 2483 2803 2694 2918 
Q 2822 2989 2912 3088 
Q 3002 3187 3008 3264 
Q 3027 3405 3235 3677 
Q 3443 3949 3443 4122 
Q 3443 4480 2861 4608 
z
" id="Purisa-50" transform="scale(0.015625)"/>
      <path d="M 2650 3110 
Q 2758 3110 2841 3043 
Q 2925 2976 2925 2931 
Q 2925 2854 2682 2758 
Q 2285 2598 1872 1987 
Q 1459 1376 1370 806 
Q 1267 160 1203 -41 
Q 1139 -243 1037 -243 
Q 947 -243 899 -179 
Q 851 -115 835 -38 
Q 819 38 800 243 
Q 794 282 794 301 
Q 640 1914 640 2848 
Q 640 3181 666 3258 
Q 736 3462 845 3462 
Q 947 3462 947 3290 
Q 947 3002 1036 2362 
Q 1126 1722 1171 1722 
Q 1229 1722 1408 2074 
Q 1632 2490 2006 2800 
Q 2381 3110 2650 3110 
z
" id="Purisa-72" transform="scale(0.015625)"/>
      <path d="M 730 3648 
Q 819 3725 883 3725 
Q 1018 3725 1078 3299 
Q 1139 2874 1190 1664 
Q 1216 1101 1216 646 
Q 1216 192 1178 147 
Q 1101 51 986 51 
Q 826 51 787 186 
Q 755 269 691 1481 
Q 627 2694 627 3168 
Q 627 3565 730 3648 
z
M 691 5152 
Q 691 5242 764 5331 
Q 838 5421 896 5421 
Q 960 5421 1072 5334 
Q 1184 5248 1184 5114 
Q 1184 5018 1129 4950 
Q 1075 4883 986 4883 
Q 883 4883 787 4960 
Q 691 5037 691 5152 
z
" id="Purisa-69" transform="scale(0.015625)"/>
      <path d="M 3232 2573 
Q 3232 2464 3184 2393 
Q 3136 2323 3072 2323 
Q 2950 2323 2918 2509 
Q 2906 2656 2707 2880 
Q 2624 2970 2573 3008 
Q 2522 3046 2333 3091 
Q 2144 3136 1837 3136 
Q 1587 3136 1456 3046 
Q 1325 2957 1133 2682 
Q 672 2029 672 1504 
Q 672 1235 729 1052 
Q 787 870 841 809 
Q 896 749 1024 621 
Q 1210 442 1309 394 
Q 1408 346 1587 346 
Q 2144 346 2803 1101 
Q 3149 1485 3302 1485 
Q 3386 1485 3386 1363 
Q 3386 1248 3082 870 
Q 2778 493 2560 339 
Q 2054 -26 1658 -26 
Q 1370 -26 1024 147 
Q 672 320 515 614 
Q 358 909 326 1472 
Q 307 1690 307 1818 
Q 307 2067 480 2387 
Q 659 2733 1001 3053 
Q 1344 3373 1594 3443 
Q 1786 3488 2010 3488 
Q 2496 3488 2864 3177 
Q 3232 2867 3232 2573 
z
" id="Purisa-63" transform="scale(0.015625)"/>
     </defs>
     <use xlink:href="#Purisa-50"/>
     <use x="65.099991" xlink:href="#Purisa-72"/>
     <use x="117.699982" xlink:href="#Purisa-69"/>
     <use x="145.399979" xlink:href="#Purisa-63"/>
     <use x="202.299973" xlink:href="#Purisa-65"/>
    </g>
   </g>
   <g id="text_6">
    <!-- Time -->
    <g transform="translate(343.864865 634.648245)scale(0.3 -0.3)">
     <defs>
      <path d="M 1414 3968 
Q 1203 3968 972 3917 
Q 742 3866 672 3866 
Q 512 3866 400 3923 
Q 288 3981 288 4070 
Q 288 4179 432 4220 
Q 576 4262 1197 4358 
Q 2458 4550 3610 4774 
Q 4320 4909 4531 4909 
Q 4730 4909 4934 4825 
Q 5139 4742 5139 4640 
Q 5139 4544 4972 4477 
Q 4806 4410 4531 4410 
Q 4102 4410 3616 4294 
L 3123 4179 
L 3219 3642 
Q 3290 3142 3389 1731 
Q 3488 320 3507 154 
Q 3526 -13 3526 -96 
Q 3526 -294 3354 -294 
Q 3187 -294 3107 122 
Q 3027 538 2957 1754 
Q 2829 3827 2624 4045 
Q 2573 4096 2458 4096 
Q 2406 4096 2019 4032 
Q 1632 3968 1414 3968 
z
" id="Purisa-54" transform="scale(0.015625)"/>
      <path d="M 922 3219 
Q 922 3590 1024 3590 
Q 1107 3590 1206 3008 
Q 1306 2426 1344 2426 
Q 1357 2426 1389 2506 
Q 1421 2586 1459 2685 
Q 1498 2784 1523 2810 
Q 1587 2893 1696 3123 
Q 1830 3398 1900 3459 
Q 1971 3520 2150 3520 
Q 2349 3520 2586 3245 
Q 2739 3066 2793 2915 
Q 2848 2765 2912 2374 
L 3014 1773 
L 3123 2157 
Q 3283 2714 3584 3117 
Q 3885 3520 4141 3520 
Q 4301 3520 4435 3337 
Q 4570 3155 4627 2874 
Q 4685 2618 4685 1715 
Q 4685 1043 4678 678 
Q 4672 314 4649 150 
Q 4627 -13 4608 -41 
Q 4589 -70 4538 -77 
Q 4518 -83 4493 -83 
Q 4435 -83 4422 96 
Q 4410 275 4403 1101 
Q 4403 3117 4096 3117 
Q 3930 3117 3661 2566 
Q 3437 2112 3283 1459 
Q 3130 806 3098 141 
Q 3091 -19 3062 -76 
Q 3034 -134 2970 -134 
Q 2893 -134 2870 -3 
Q 2848 128 2822 691 
Q 2778 1728 2694 2147 
Q 2611 2566 2387 2906 
Q 2221 3142 2144 3142 
Q 2054 3142 1945 2921 
Q 1837 2701 1587 2080 
Q 1472 1779 1472 1530 
Q 1472 1382 1417 1206 
Q 1363 1030 1344 339 
Q 1331 -307 1293 -397 
Q 1267 -474 1190 -474 
Q 1088 -474 1053 -166 
Q 1018 141 1018 1062 
Q 1018 1805 970 2425 
Q 922 3046 922 3219 
z
" id="Purisa-6d" transform="scale(0.015625)"/>
     </defs>
     <use xlink:href="#Purisa-54"/>
     <use x="83.199982" xlink:href="#Purisa-69"/>
     <use x="110.899979" xlink:href="#Purisa-6d"/>
     <use x="195.299973" xlink:href="#Purisa-65"/>
    </g>
   </g>
  </g>
 </g>
 <defs>
  <clipPath id="p917b4f422b">
   <rect height="543.6" width="558" x="90" y="86.4"/>
  </clipPath>
 </defs>
</svg>
